<mxfile host="app.diagrams.net" modified="2024-03-05T14:01:12.321Z" agent="Mozilla/5.0 (X11; Linux x86_64; rv:123.0) Gecko/20100101 Firefox/123.0" etag="c-0AWVJ-wnwJN320_4cU" version="24.0.1" type="device">
  <diagram name="Page-1" id="BhLIR9JtG7PNYTrS3k0O">
    <mxGraphModel dx="4051" dy="2459" grid="1" gridSize="10" guides="1" tooltips="1" connect="1" arrows="1" fold="1" page="1" pageScale="1" pageWidth="827" pageHeight="1169" math="0" shadow="0">
      <root>
        <mxCell id="0" />
        <mxCell id="1" parent="0" />
        <mxCell id="7HO7rDM9S-rC7hW_eT33-16" value="&lt;div align=&quot;left&quot;&gt;CONSUMER&lt;/div&gt;" style="rounded=0;whiteSpace=wrap;html=1;fillColor=#dae8fc;strokeColor=#6c8ebf;align=left;verticalAlign=top;" vertex="1" parent="1">
          <mxGeometry x="-420" y="-20" width="450" height="430" as="geometry" />
        </mxCell>
        <mxCell id="7HO7rDM9S-rC7hW_eT33-17" value="Consumer ControlPlane" style="rounded=1;whiteSpace=wrap;html=1;" vertex="1" parent="1">
          <mxGeometry x="-350" y="30" width="330" height="140" as="geometry" />
        </mxCell>
        <mxCell id="7HO7rDM9S-rC7hW_eT33-18" value="Consumer DataPlane" style="rounded=1;whiteSpace=wrap;html=1;" vertex="1" parent="1">
          <mxGeometry x="-350" y="200" width="330" height="190" as="geometry" />
        </mxCell>
        <mxCell id="7HO7rDM9S-rC7hW_eT33-19" value="DSP API" style="rounded=1;whiteSpace=wrap;html=1;arcSize=41;rotation=90;fillColor=#d0cee2;strokeColor=#56517e;" vertex="1" parent="1">
          <mxGeometry x="-60" y="80" width="70" height="40" as="geometry" />
        </mxCell>
        <mxCell id="7HO7rDM9S-rC7hW_eT33-20" value="(1)" style="text;html=1;align=center;verticalAlign=middle;whiteSpace=wrap;rounded=0;fontSize=16;fontColor=#FF3333;" vertex="1" parent="1">
          <mxGeometry x="-70" y="255" width="70" height="30" as="geometry" />
        </mxCell>
        <mxCell id="7HO7rDM9S-rC7hW_eT33-21" value="TokenRefreshHandler" style="rounded=1;whiteSpace=wrap;html=1;" vertex="1" parent="1">
          <mxGeometry x="-240" y="330" width="150" height="30" as="geometry" />
        </mxCell>
        <mxCell id="7HO7rDM9S-rC7hW_eT33-22" value="POST /token/refresh?refresh_token=..." style="endArrow=classic;html=1;rounded=0;fontFamily=Courier New;fillColor=#ffe6cc;strokeColor=#d79b00;exitX=1;exitY=0.5;exitDx=0;exitDy=0;" edge="1" parent="1">
          <mxGeometry width="50" height="50" relative="1" as="geometry">
            <mxPoint x="-100" y="335" as="sourcePoint" />
            <mxPoint x="320" y="330" as="targetPoint" />
          </mxGeometry>
        </mxCell>
        <mxCell id="7HO7rDM9S-rC7hW_eT33-23" value="GET /some/data&lt;br&gt;returns 401" style="endArrow=classic;html=1;rounded=0;fontFamily=Courier New;exitX=1;exitY=0.25;exitDx=0;exitDy=0;" edge="1" parent="1">
          <mxGeometry x="0.0018" width="50" height="50" relative="1" as="geometry">
            <mxPoint x="-20" y="248" as="sourcePoint" />
            <mxPoint x="260" y="248" as="targetPoint" />
            <mxPoint as="offset" />
          </mxGeometry>
        </mxCell>
        <mxCell id="7HO7rDM9S-rC7hW_eT33-24" value="" style="sketch=0;outlineConnect=0;fontColor=#232F3E;gradientColor=none;fillColor=#232F3D;strokeColor=none;dashed=0;verticalLabelPosition=bottom;verticalAlign=top;align=center;html=1;fontSize=12;fontStyle=0;aspect=fixed;pointerEvents=1;shape=mxgraph.aws4.alert;" vertex="1" parent="1">
          <mxGeometry x="-90" y="230" width="45.22" height="40" as="geometry" />
        </mxCell>
        <mxCell id="7HO7rDM9S-rC7hW_eT33-25" value="" style="endArrow=classic;html=1;rounded=0;entryX=0.75;entryY=0;entryDx=0;entryDy=0;edgeStyle=orthogonalEdgeStyle;" edge="1" parent="1" source="7HO7rDM9S-rC7hW_eT33-24" target="7HO7rDM9S-rC7hW_eT33-21">
          <mxGeometry width="50" height="50" relative="1" as="geometry">
            <mxPoint x="390" y="610" as="sourcePoint" />
            <mxPoint x="440" y="560" as="targetPoint" />
          </mxGeometry>
        </mxCell>
        <mxCell id="7HO7rDM9S-rC7hW_eT33-26" value="(2)" style="text;html=1;align=center;verticalAlign=middle;whiteSpace=wrap;rounded=0;fontSize=16;fontColor=#FF3333;" vertex="1" parent="1">
          <mxGeometry x="-140" y="300" width="70" height="30" as="geometry" />
        </mxCell>
        <mxCell id="7HO7rDM9S-rC7hW_eT33-27" value="(3)" style="text;html=1;align=center;verticalAlign=middle;whiteSpace=wrap;rounded=0;fontSize=16;fontColor=#FF3333;" vertex="1" parent="1">
          <mxGeometry x="100" y="340" width="70" height="30" as="geometry" />
        </mxCell>
      </root>
    </mxGraphModel>
  </diagram>
</mxfile>
